<?xml version="1.0" encoding="UTF-8" standalone="no"?>
<svg
   xmlns:osb="http://www.openswatchbook.org/uri/2009/osb"
   xmlns:dc="http://purl.org/dc/elements/1.1/"
   xmlns:cc="http://creativecommons.org/ns#"
   xmlns:rdf="http://www.w3.org/1999/02/22-rdf-syntax-ns#"
   xmlns:svg="http://www.w3.org/2000/svg"
   xmlns="http://www.w3.org/2000/svg"
   xmlns:sodipodi="http://sodipodi.sourceforge.net/DTD/sodipodi-0.dtd"
   xmlns:inkscape="http://www.inkscape.org/namespaces/inkscape"
   version="1.1"
   width="640"
   height="480"
   id="svg17"
   sodipodi:docname="BDConseilS.svg"
   inkscape:version="0.92.2 5c3e80d, 2017-08-06">
  <metadata
     id="metadata23">
    <rdf:RDF>
      <cc:Work
         rdf:about="">
        <dc:format>image/svg+xml</dc:format>
        <dc:type
           rdf:resource="http://purl.org/dc/dcmitype/StillImage" />
        <dc:title></dc:title>
      </cc:Work>
    </rdf:RDF>
  </metadata>
  <defs
     id="defs21">
    <linearGradient
       id="linearGradient5991"
       osb:paint="solid">
      <stop
         style="stop-color:#000000;stop-opacity:1;"
         offset="0"
         id="stop5989" />
    </linearGradient>
  </defs>
  <sodipodi:namedview
     pagecolor="#ffffff"
     bordercolor="#666666"
     borderopacity="1"
     objecttolerance="10"
     gridtolerance="10"
     guidetolerance="10"
     inkscape:pageopacity="0"
     inkscape:pageshadow="2"
     inkscape:window-width="1440"
     inkscape:window-height="855"
     id="namedview19"
     showgrid="true"
     inkscape:zoom="0.66875"
     inkscape:cx="74.621823"
     inkscape:cy="230.45165"
     inkscape:window-x="0"
     inkscape:window-y="1"
     inkscape:window-maximized="1"
     inkscape:current-layer="svg17">
    <inkscape:grid
       type="xygrid"
       id="grid6224" />
  </sodipodi:namedview>
  <desc
     iVinci="yes"
     version="4.6"
     gridStep="20"
     showGrid="no"
     snapToGrid="no"
     codePlatform="0"
     id="desc2" />
  <rect
     id="rect47"
     width="500"
     height="500"
     x="37.85709"
     y="-14.782566"
     style="fill:#fefefe;fill-opacity:1;stroke-width:0.96439594"
     inkscape:export-xdpi="96"
     inkscape:export-ydpi="96" />
  <g
     id="Layer1"
     name="Layer 1"
     transform="translate(459.867,159.148)"
     style="opacity:1">
    <g
       id="Shape1">
      <desc
         shapeID="1"
         type="2"
         basicInfo-basicType="0"
         basicInfo-roundedRectRadius="12"
         basicInfo-polygonSides="6"
         basicInfo-starPoints="5"
         bounding="rect(-55,-35,110,70)"
         text="BD"
         font-familyName="Britannic Bold"
         font-pixelSize="48"
         font-bold="1"
         font-underline="0"
         font-alignment="1"
         strokeStyle="0"
         markerStart="0"
         markerEnd="0"
         shadowEnabled="0"
         shadowOffsetX="0"
         shadowOffsetY="2"
         shadowBlur="4"
         shadowOpacity="160"
         blurEnabled="0"
         blurRadius="4"
         transform="matrix(1,0,0,1,258.922,167.5)"
         pers-center="0,0"
         pers-size="0,0"
         pers-start="0,0"
         pers-end="0,0"
         locked="0"
         mesh=""
         flag=""
         id="desc4" />
      <path
         id="shapePath1"
         d="m 230.852,183.5 v -31.992 h 14.226 c 7.328,0 10.992,2.617 10.992,7.851 0,3.719 -2.211,6.102 -6.632,7.149 5.328,1.062 7.992,3.89 7.992,8.484 0,5.672 -3.586,8.508 -10.758,8.508 h -15.82 m 9.281,-2.648 h 2.648 c 3.469,0 5.203,-1.985 5.203,-5.954 0,-4.546 -1.789,-6.82 -5.367,-6.82 h -2.484 v 12.774 m 0,-15.422 h 2.859 c 2.641,0 3.961,-1.953 3.961,-5.86 0,-3.609 -1.398,-5.414 -4.195,-5.414 h -2.625 v 11.274 m 20.883,18.07 v -31.992 h 13.265 c 9.422,0 14.133,5.344 14.133,16.031 0,10.641 -4.883,15.961 -14.648,15.961 h -12.75 m 9.281,-2.648 h 2.437 c 2.235,0 3.782,-0.965 4.641,-2.895 0.859,-1.93 1.289,-5.418 1.289,-10.465 0,-5.047 -0.426,-8.531 -1.277,-10.453 -0.852,-1.922 -2.403,-2.883 -4.653,-2.883 h -2.437 z"
         style="fill:#3331ae;fill-opacity:1;fill-rule:nonzero;stroke:none"
         inkscape:connector-curvature="0" />
    </g>
    <g
       id="Shape2">
      <desc
         shapeID="2"
         type="2"
         basicInfo-basicType="0"
         basicInfo-roundedRectRadius="12"
         basicInfo-polygonSides="6"
         basicInfo-starPoints="5"
         bounding="rect(-37.269,-12,74.538,24)"
         text="Conseil"
         font-familyName="Britannic Bold"
         font-pixelSize="18"
         font-bold="1"
         font-underline="0"
         font-alignment="1"
         strokeStyle="0"
         markerStart="0"
         markerEnd="0"
         shadowEnabled="0"
         shadowOffsetX="0"
         shadowOffsetY="2"
         shadowBlur="4"
         shadowOpacity="160"
         blurEnabled="0"
         blurRadius="4"
         transform="matrix(1,0,0,1,259.451,192.801)"
         pers-center="0,0"
         pers-size="0,0"
         pers-start="0,0"
         pers-end="0,0"
         locked="0"
         mesh=""
         flag=""
         id="desc8" />
      <path
         id="shapePath2"
         d="m 239.324,194 1.486,0.387 c 0.023,0.305 0.035,0.568 0.035,0.791 0,1.166 -0.422,2.098 -1.266,2.795 -0.843,0.697 -1.974,1.046 -3.392,1.046 -3.557,0 -5.335,-2.001 -5.335,-6.003 0,-1.899 0.518,-3.438 1.555,-4.619 1.037,-1.181 2.388,-1.771 4.052,-1.771 2.596,0 3.894,1.248 3.894,3.744 l -1.494,0.686 c 0.017,-0.352 0.026,-0.624 0.026,-0.818 0,-1.769 -0.709,-2.654 -2.127,-2.654 -1.5,0 -2.25,1.878 -2.25,5.634 0,3.228 0.838,4.843 2.514,4.843 0.691,0 1.267,-0.276 1.727,-0.826 0.46,-0.551 0.69,-1.24 0.69,-2.066 0,-0.264 -0.038,-0.653 -0.115,-1.169 m 6.677,-4.271 c 2.93,0 4.395,1.547 4.395,4.64 0,3.094 -1.465,4.641 -4.395,4.641 -2.935,0 -4.403,-1.547 -4.403,-4.641 0,-3.093 1.468,-4.64 4.403,-4.64 m -0.009,0.782 c -0.709,0 -1.063,1.286 -1.063,3.858 0,2.573 0.354,3.859 1.063,3.859 0.715,0 1.073,-1.286 1.073,-3.859 0,-2.572 -0.358,-3.858 -1.073,-3.858 m 14.129,8.306 h -3.208 v -6.504 c 0,-0.662 -0.184,-0.993 -0.553,-0.993 -0.375,0 -0.701,0.262 -0.976,0.786 -0.275,0.525 -0.413,1.144 -0.413,1.859 v 4.852 h -3.208 v -8.877 c 1.101,0 2.171,-0.074 3.208,-0.22 v 1.661 c 0.797,-1.102 1.769,-1.652 2.918,-1.652 1.488,0 2.232,0.756 2.232,2.267 v 6.821 m 8.713,-6.583 -1.556,0.272 c 0,-1.324 -0.615,-1.986 -1.845,-1.986 -0.756,0 -1.134,0.31 -1.134,0.931 0,0.457 0.65,0.95 1.951,1.477 1.992,0.814 2.988,1.849 2.988,3.102 0,1.999 -1.268,2.998 -3.805,2.998 -2.684,0 -4.026,-0.999 -4.026,-2.998 l 1.653,-0.334 c -0.024,0.194 -0.035,0.375 -0.035,0.545 0,0.516 0.215,0.964 0.646,1.345 0.43,0.381 0.939,0.571 1.524,0.571 0.774,0 1.161,-0.328 1.161,-0.984 0,-0.439 -0.624,-0.926 -1.872,-1.459 -1.881,-0.809 -2.822,-1.846 -2.822,-3.111 0,-0.838 0.361,-1.525 1.081,-2.061 0.721,-0.536 1.647,-0.805 2.778,-0.805 2.009,0 3.114,0.833 3.313,2.497 m 8.007,3.339 1.292,0.378 c -0.135,2.045 -1.342,3.068 -3.621,3.068 -2.953,0 -4.43,-1.474 -4.43,-4.421 0,-1.43 0.393,-2.602 1.178,-3.516 0.785,-0.914 1.79,-1.371 3.015,-1.371 2.56,0 3.84,1.652 3.84,4.957 h -4.675 c 0,2.32 0.588,3.481 1.766,3.481 1.102,0 1.653,-0.657 1.653,-1.969 0,-0.176 -0.006,-0.378 -0.018,-0.607 m -3.41,-1.898 h 1.916 c 0,-2.063 -0.311,-3.094 -0.932,-3.094 -0.562,0 -0.879,0.765 -0.949,2.294 l -0.035,0.8 m 7.71,-7.154 c 0.996,0 1.494,0.386 1.494,1.16 0,0.773 -0.498,1.16 -1.494,1.16 -0.996,0 -1.494,-0.387 -1.494,-1.16 0,-0.774 0.498,-1.16 1.494,-1.16 m -1.626,12.296 v -8.851 c 1.002,0 2.071,-0.079 3.208,-0.237 v 9.088 h -3.208 m 8.193,-12.173 v 12.173 H 284.5 V 186.82 c 0.885,0 1.954,-0.059 3.208,-0.176 z"
         style="fill:#3331ae;fill-opacity:1;fill-rule:nonzero;stroke:none"
         inkscape:connector-curvature="0" />
    </g>
    <g
       id="Shape3">
      <desc
         shapeID="3"
         type="0"
         basicInfo-basicType="1"
         basicInfo-roundedRectRadius="12"
         basicInfo-polygonSides="6"
         basicInfo-starPoints="5"
         bounding="rect(-48,-44,96,88)"
         text=""
         font-familyName="Hiragino Kaku Gothic StdN"
         font-pixelSize="17"
         font-bold="0"
         font-underline="0"
         font-alignment="1"
         strokeStyle="0"
         markerStart="0"
         markerEnd="0"
         shadowEnabled="0"
         shadowOffsetX="0"
         shadowOffsetY="2"
         shadowBlur="4"
         shadowOpacity="160"
         blurEnabled="0"
         blurRadius="4"
         transform="matrix(0.706999,0,0,0.635846,259.633,175.854)"
         pers-center="0,0"
         pers-size="0,0"
         pers-start="0,0"
         pers-end="0,0"
         locked="0"
         mesh=""
         flag=""
         id="desc12" />
      <path
         id="shapePath3"
         d="m 225.697,147.877 h 67.872 v 55.954 h -67.872 z"
         style="fill:#1e1e1e;fill-opacity:0.29019602;fill-rule:evenodd;stroke:none"
         inkscape:connector-curvature="0" />
    </g>
  </g>
  <g
     id="g6222"
     transform="matrix(7.0936307,0,0,8.7756347,-2568.0498,-1197.3411)"
     inkscape:export-xdpi="96"
     inkscape:export-ydpi="96">
    <text
       transform="scale(1.0928265,0.91505831)"
       id="text3716"
       y="180.58557"
       x="338.64401"
       style="font-style:normal;font-variant:normal;font-weight:bold;font-stretch:normal;font-size:36.61836243px;line-height:1.25;font-family:sans-serif;-inkscape-font-specification:'sans-serif Bold';letter-spacing:0px;word-spacing:0px;fill:#363ea3;fill-opacity:1;stroke:#000002;stroke-width:0.27463773;stroke-linejoin:round;stroke-miterlimit:4;stroke-dasharray:none;stroke-opacity:1"
       xml:space="preserve"><tspan
         style="fill:#363ea3;fill-opacity:1;stroke:#000002;stroke-width:0.27463773;stroke-linejoin:round;stroke-miterlimit:4;stroke-dasharray:none;stroke-opacity:1"
         id="tspan3718"
         y="180.58557"
         x="338.64401"
         sodipodi:role="line">BD</tspan></text>
    <text
       transform="scale(0.93594431,1.0684396)"
       id="text3724"
       y="167.94624"
       x="398.92166"
       style="font-style:normal;font-variant:normal;font-weight:bold;font-stretch:normal;font-size:37.44520187px;line-height:1.25;font-family:sans-serif;-inkscape-font-specification:'sans-serif Bold';letter-spacing:0px;word-spacing:0px;fill:#363ea3;fill-opacity:1;stroke:#000000;stroke-width:0.29754275;stroke-linecap:round;stroke-linejoin:round;stroke-miterlimit:4;stroke-dasharray:none;stroke-opacity:1;paint-order:normal"
       xml:space="preserve"><tspan
         style="font-style:normal;font-variant:normal;font-weight:bold;font-stretch:normal;font-size:14.9780798px;font-family:sans-serif;-inkscape-font-specification:'sans-serif Bold';fill:#363ea3;fill-opacity:1;stroke:#000000;stroke-width:0.29754275;stroke-linecap:round;stroke-linejoin:round;stroke-miterlimit:4;stroke-dasharray:none;stroke-opacity:1;paint-order:normal"
         y="167.94624"
         x="398.92166"
         id="tspan3722"
         sodipodi:role="line">Conseil</tspan></text>
    <rect
       y="137.23196"
       x="369.90656"
       height="47.067085"
       width="65.420563"
       id="rect6055"
       style="fill:none;fill-opacity:1;stroke:#aeaeae;stroke-width:1.61503661;stroke-linecap:round;stroke-linejoin:round;stroke-miterlimit:4;stroke-dasharray:none;stroke-opacity:1;paint-order:normal" />
    <text
       transform="scale(0.92221639,1.0843442)"
       id="text6059"
       y="175.47968"
       x="400.58011"
       style="font-style:normal;font-variant:normal;font-weight:bold;font-stretch:normal;font-size:4.45265436px;line-height:1.25;font-family:sans-serif;-inkscape-font-specification:'sans-serif Bold';letter-spacing:0px;word-spacing:0px;fill:#000000;fill-opacity:1;stroke:none;stroke-width:0.92221642"
       xml:space="preserve"><tspan
         style="font-style:normal;font-variant:normal;font-weight:bold;font-stretch:normal;font-size:4.45265436px;font-family:sans-serif;-inkscape-font-specification:'sans-serif Bold';stroke-width:0.92221642"
         y="175.47968"
         x="400.58011"
         id="tspan6057"
         sodipodi:role="line">Data &amp; Software Intelligence</tspan></text>
  </g>
</svg>
