<?xml version="1.0" encoding="UTF-8" standalone="no"?>
<svg
   xmlns:dc="http://purl.org/dc/elements/1.1/"
   xmlns:cc="http://creativecommons.org/ns#"
   xmlns:rdf="http://www.w3.org/1999/02/22-rdf-syntax-ns#"
   xmlns:svg="http://www.w3.org/2000/svg"
   xmlns="http://www.w3.org/2000/svg"
   xmlns:sodipodi="http://sodipodi.sourceforge.net/DTD/sodipodi-0.dtd"
   xmlns:inkscape="http://www.inkscape.org/namespaces/inkscape"
   viewBox="0 0 100 56"
   height="56"
   width="100"
   xml:space="preserve"
   version="1.1"
   id="svg2"
   inkscape:version="0.48.4 r9939"
   sodipodi:docname="colpatria.svg"><title
     id="title3011">Banco Colpatria logo</title><sodipodi:namedview
     pagecolor="#ffffff"
     bordercolor="#666666"
     borderopacity="1"
     objecttolerance="10"
     gridtolerance="10"
     guidetolerance="10"
     inkscape:pageopacity="0"
     inkscape:pageshadow="2"
     inkscape:window-width="1600"
     inkscape:window-height="844"
     id="namedview16"
     showgrid="false"
     inkscape:showpageshadow="false"
     inkscape:zoom="1"
     inkscape:cx="53.680767"
     inkscape:cy="26.225852"
     inkscape:window-x="-4"
     inkscape:window-y="-4"
     inkscape:window-maximized="1"
     inkscape:current-layer="svg2" /><metadata
     id="metadata8"><rdf:RDF><cc:Work
         rdf:about=""><dc:format>image/svg+xml</dc:format><dc:type
           rdf:resource="http://purl.org/dc/dcmitype/StillImage" /><dc:title>Banco Colpatria logo</dc:title></cc:Work></rdf:RDF></metadata><defs
     id="defs6"><clipPath
       id="clipPath16"
       clipPathUnits="userSpaceOnUse"><path
         id="path18"
         d="M 0,486 873,486 873,0 0,0 0,486 z"
         inkscape:connector-curvature="0" /></clipPath></defs><g
     transform="matrix(0.19985327,0,0,-0.21274238,-37.501724,72.224139)"
     id="g10"><g
       id="g12"><g
         clip-path="url(#clipPath16)"
         id="g14"><g
           transform="translate(252.835,297.1411)"
           id="g20" /><g
           transform="translate(252.7578,297.064)"
           id="g24" /><g
           transform="translate(661.0732,105.9316)"
           id="g28"><path
             id="path30"
             style="fill:#000000;fill-opacity:1;fill-rule:nonzero;stroke:none"
             d="M 0,0 -15,0 -4.178,22.236 0,0 z m 2.757,-13.854 2.672,-12.149 19.248,0 -15.498,69.747 -19.676,0 -37.399,-69.747 19.145,0 6.661,12.149 24.847,0 z m -44.334,57.598 -18.049,0 -10.703,-69.747 18.118,0 10.634,69.747 z m -62.812,-13.837 1.763,0 c 5.908,0 12.363,-1.138 11.2,-8.733 -1.182,-7.57 -7.964,-8.682 -13.853,-8.682 l -1.765,0 2.655,17.415 z m 13.7,-27.321 c 10.12,1.755 16.712,10.095 18.236,19.727 2.261,14.881 -7.141,21.431 -20.857,21.431 l -27.004,0 -10.686,-69.747 18.065,0 4.111,26.859 13.1,-26.859 22.467,0 -17.432,28.589 z m -52.418,25.832 14.915,0 2.363,15.326 -47.897,0 -2.363,-15.326 14.95,0 -8.374,-54.421 18.083,0 8.323,54.421 z M -201.621,0 -216.639,0 -205.765,22.236 -201.621,0 z m 2.774,-13.854 2.655,-12.149 19.23,0 -15.446,69.747 -19.761,0 -37.344,-69.747 19.111,0 6.678,12.149 24.877,0 z m -67.277,43 3.04,0 c 6.986,0 12.963,-0.103 11.602,-8.879 -1.25,-8.52 -7.715,-8.52 -14.299,-8.52 l -3.032,0 2.689,17.399 z m -26.5,-55.149 18.015,0 3.579,23.144 10.232,0 c 15.737,0 25.678,7.2 28.221,23.666 2.406,16.027 -6.85,22.937 -21.739,22.937 l -27.622,0 -10.686,-69.747 z m -15.788,69.747 -18.084,0 -10.659,-69.747 39.668,0 2.381,15.36 -21.663,0 8.357,54.387 z m -64.37,-15.232 c 10.754,0 18.263,-8.785 16.773,-18.392 -1.841,-12.055 -12.013,-20.84 -22.776,-20.84 -10.788,0 -18.297,8.785 -16.456,20.84 1.473,9.607 11.653,18.392 22.459,18.392 m 2.645,17.594 c -19.958,0 -40.644,-14.812 -43.863,-35.9 -3.451,-22.595 10.206,-38.538 32.527,-38.538 22.253,0 40.816,15.943 44.275,38.538 3.219,21.088 -12.955,35.9 -32.939,35.9 m -42.964,-4.015 c -4.983,2.244 -10.172,3.536 -15.952,3.536 -9.769,0 -20.275,-4.255 -28.195,-11.301 -7.654,-6.842 -12.647,-16.02 -14.119,-25.533 -1.567,-10.351 0.531,-19.436 7.098,-26.337 6.19,-6.619 14.847,-10.291 24.522,-10.291 5.6,0 10.155,1.386 16.439,3.235 l 3.314,21.741 c -4.469,-4.565 -10.805,-7.415 -16.722,-7.415 -11.208,0 -17.561,7.988 -15.814,18.973 1.61,10.84 10.377,19.367 21.431,19.367 6.164,0 11.73,-2.713 14.667,-7.706 l 3.331,21.731 z"
             inkscape:connector-curvature="0" /></g></g></g></g><path
     id="path26"
     style="fill:#df0d20;fill-opacity:1;fill-rule:nonzero;stroke:none"
     d="m 22.952497,18.350848 c 0,-9.683316 12.491385,-17.5331797 27.905694,-17.5331797 5.761483,0 11.107939,1.0982067 15.558698,2.9696164 C 65.293204,3.7006179 58.362062,3.1387042 52.839464,3.4758833 45.727799,3.8997299 28.356106,7.4447026 28.356106,16.704171 c 0,7.774106 13.613559,10.208697 18.874582,9.908055 3.495361,-0.174603 6.336186,-0.885496 7.874153,-1.359476 -2.242093,1.522054 -5.248777,2.882947 -8.971834,3.868711 0,0 -9.318226,2.308858 -14.673897,1.859229 -5.249391,-3.194349 -8.506613,-7.675104 -8.506613,-12.629842 M 70.246245,5.7466261 c 5.248022,3.1943502 8.518094,7.6629289 8.518094,12.6042219 0,9.696757 -12.492443,17.546627 -27.906148,17.546627 -5.763446,0 -11.120336,-1.098211 -15.569735,-2.98322 1.120966,0.100269 8.053467,0.662337 13.589067,0.325163 7.110305,-0.437447 24.48079,-3.955379 24.48079,-13.240629 0,-7.749595 -13.611142,-10.2086972 -18.885016,-9.909474 -3.485079,0.188202 -6.336337,0.899251 -7.86251,1.373074 2.243452,-1.5098747 5.236983,-2.8829479 8.960201,-3.8687074 0,0 9.32865,-2.3208776 14.675257,-1.8470555 M 45.810654,12.036481 c 1.289252,-0.373714 2.648659,-0.574092 4.009275,-0.574092 5.678628,0 10.235536,3.082063 10.235536,6.838325 0,2.009476 -1.395703,4.306156 -4.150491,6.390121 -1.289404,0.361538 -2.661511,0.57409 -4.007755,0.57409 -5.679998,0 -10.238255,-3.10768 -10.238255,-6.864102 0,-1.995874 1.395532,-4.292555 4.15169,-6.364342"
     inkscape:connector-curvature="0" /></svg>