<svg id="Calque_1" data-name="Calque 1" xmlns="http://www.w3.org/2000/svg" viewBox="0 0 198 124.88"><defs><style>.cls-1{fill:#952975;}.cls-2{fill:#5b215c;}.cls-3{fill:#952974;}</style></defs><title>SFIL_couleur</title><path class="cls-1" d="M25.34,106.33l4.1-9.62h1.93l4.1,9.62h-2.2l-0.87-2.14h-4l-0.87,2.14H25.34Zm3.76-4h2.54l-1.27-3.1Z" transform="translate(0 0)"/><path class="cls-1" d="M39,106.46a2.34,2.34,0,0,1-1.83-.72,2.85,2.85,0,0,1-.66-2V99h2.07v4.08a1.64,1.64,0,0,0,.33,1.11,1.16,1.16,0,0,0,.93.38,1.21,1.21,0,0,0,.95-0.38,1.6,1.6,0,0,0,.34-1.1V99h2.08v7.31H41.16v-1a3.65,3.65,0,0,1-.92.86A2.24,2.24,0,0,1,39,106.46Z" transform="translate(0 0)"/><path class="cls-1" d="M51.73,106.46a5.09,5.09,0,0,1-1.62-.27,5,5,0,0,1-1.51-.83L49.48,104a4,4,0,0,0,2.3.87,1.2,1.2,0,0,0,.66-0.15,0.46,0.46,0,0,0,.22-0.4v0a0.42,0.42,0,0,0,0-.14,0.35,0.35,0,0,0-.08-0.12l-0.11-.1-0.16-.09-0.18-.08-0.22-.08-0.23-.07-0.26-.08-0.26-.08-0.63-.21a4,4,0,0,1-.58-0.29,2.17,2.17,0,0,1-.51-0.4A1.81,1.81,0,0,1,49.1,102a2,2,0,0,1-.13-0.74v0a2.07,2.07,0,0,1,.76-1.7,2.93,2.93,0,0,1,1.91-.62,4.79,4.79,0,0,1,1.42.22,5,5,0,0,1,1.32.62l-0.79,1.43a4.17,4.17,0,0,0-2-.68,1,1,0,0,0-.57.14,0.42,0.42,0,0,0-.2.36v0a0.42,0.42,0,0,0,.19.32,1.58,1.58,0,0,0,.42.24l0.66,0.24,0.22,0.07,0.63,0.23a4.48,4.48,0,0,1,.59.3,2.23,2.23,0,0,1,.52.4,1.89,1.89,0,0,1,.34.54,1.77,1.77,0,0,1,.14.71v0a2.09,2.09,0,0,1-.77,1.76A3.23,3.23,0,0,1,51.73,106.46Z" transform="translate(0 0)"/><path class="cls-1" d="M59.47,106.5a3.75,3.75,0,0,1-2.74-1.06,3.65,3.65,0,0,1-1.08-2.72v0a4,4,0,0,1,.46-1.9A3.54,3.54,0,0,1,57.4,99.4a3.48,3.48,0,0,1,1.87-.52,3.68,3.68,0,0,1,1.58.33,2.94,2.94,0,0,1,1.12.89,4,4,0,0,1,.64,1.26,5.06,5.06,0,0,1,.22,1.5q0,0.16,0,.55H57.72a1.78,1.78,0,0,0,.62,1.07,1.84,1.84,0,0,0,1.17.37,2.34,2.34,0,0,0,.93-0.18,3.06,3.06,0,0,0,.84-0.58l1.19,1.05A3.63,3.63,0,0,1,59.47,106.5Zm-1.78-4.39h3.12a2,2,0,0,0-.5-1.13,1.38,1.38,0,0,0-1-.42,1.41,1.41,0,0,0-1,.42A2.07,2.07,0,0,0,57.69,102.1Z" transform="translate(0 0)"/><path class="cls-1" d="M64.37,106.33V99h2.08v1.47a2.27,2.27,0,0,1,2.33-1.6V101H68.66a2.09,2.09,0,0,0-1.64.65,2.81,2.81,0,0,0-.58,1.93v2.7H64.37Z" transform="translate(0 0)"/><path class="cls-1" d="M72.29,106.38L69.42,99h2.2l1.63,4.9L74.9,99h2.16l-2.88,7.36H72.29Z" transform="translate(0 0)"/><path class="cls-1" d="M78.29,98.21V96.37h2.18v1.84H78.29Zm0.06,8.12V99h2.07v7.31H78.35Z" transform="translate(0 0)"/><path class="cls-1" d="M85.81,106.5a3.82,3.82,0,0,1-2-.51,3.62,3.62,0,0,1-1.36-1.38,3.81,3.81,0,0,1-.49-1.9v0a3.83,3.83,0,0,1,.49-1.9,3.64,3.64,0,0,1,1.37-1.38,3.86,3.86,0,0,1,2-.52,4.1,4.1,0,0,1,1.68.31,3.6,3.6,0,0,1,1.23.92l-1.27,1.37a3,3,0,0,0-.77-0.61,1.91,1.91,0,0,0-.9-0.2,1.61,1.61,0,0,0-1.27.58,2.08,2.08,0,0,0-.5,1.41v0a2.09,2.09,0,0,0,.51,1.44,1.71,1.71,0,0,0,1.35.58,1.94,1.94,0,0,0,.88-0.19,3.45,3.45,0,0,0,.8-0.58l1.21,1.23a4.37,4.37,0,0,1-1.28,1A3.8,3.8,0,0,1,85.81,106.5Z" transform="translate(0 0)"/><path class="cls-1" d="M93.39,106.5a3.75,3.75,0,0,1-2.74-1.06,3.65,3.65,0,0,1-1.08-2.72v0a4,4,0,0,1,.46-1.9,3.54,3.54,0,0,1,1.29-1.38,3.48,3.48,0,0,1,1.87-.52,3.68,3.68,0,0,1,1.58.33,2.94,2.94,0,0,1,1.12.89,4,4,0,0,1,.64,1.26,5.06,5.06,0,0,1,.22,1.5q0,0.16,0,.55H91.63a1.78,1.78,0,0,0,.62,1.07,1.84,1.84,0,0,0,1.17.37,2.34,2.34,0,0,0,.93-0.18,3.06,3.06,0,0,0,.84-0.58l1.19,1.05A3.63,3.63,0,0,1,93.39,106.5Zm-1.78-4.39h3.12a2,2,0,0,0-.5-1.13,1.38,1.38,0,0,0-1-.42,1.41,1.41,0,0,0-1,.42A2.07,2.07,0,0,0,91.61,102.1Z" transform="translate(0 0)"/><path class="cls-1" d="M105.38,106.46a3.18,3.18,0,0,1-1.24-.25,3.25,3.25,0,0,1-1.81-1.91,4.47,4.47,0,0,1-.28-1.61v0a4.52,4.52,0,0,1,.28-1.61,3.22,3.22,0,0,1,1.8-1.91,3.21,3.21,0,0,1,1.25-.25,2.86,2.86,0,0,1,2.28,1.09v-3.6h2.07v10h-2.07v-1.05A2.72,2.72,0,0,1,105.38,106.46Zm0.53-1.76a1.64,1.64,0,0,0,1.26-.56,2.07,2.07,0,0,0,.52-1.45v0a2.07,2.07,0,0,0-.52-1.45,1.64,1.64,0,0,0-1.26-.56,1.67,1.67,0,0,0-1.27.56,2.05,2.05,0,0,0-.52,1.45v0a2.05,2.05,0,0,0,.52,1.45A1.66,1.66,0,0,0,105.91,104.7Z" transform="translate(0 0)"/><path class="cls-1" d="M115,106.5a3.75,3.75,0,0,1-2.74-1.06,3.65,3.65,0,0,1-1.08-2.72v0a4,4,0,0,1,.46-1.9A3.54,3.54,0,0,1,113,99.4a3.48,3.48,0,0,1,1.87-.52,3.68,3.68,0,0,1,1.58.33,2.94,2.94,0,0,1,1.12.89,4,4,0,0,1,.64,1.26,5.06,5.06,0,0,1,.22,1.5q0,0.16,0,.55h-5.09a1.78,1.78,0,0,0,.62,1.07,1.84,1.84,0,0,0,1.17.37,2.34,2.34,0,0,0,.93-0.18,3.06,3.06,0,0,0,.84-0.58l1.19,1.05A3.63,3.63,0,0,1,115,106.5Zm-1.78-4.39h3.12a2,2,0,0,0-.5-1.13,1.38,1.38,0,0,0-1-.42,1.41,1.41,0,0,0-1,.42A2.07,2.07,0,0,0,113.25,102.1Z" transform="translate(0 0)"/><path class="cls-1" d="M122.5,106.46a5.09,5.09,0,0,1-1.62-.27,5,5,0,0,1-1.51-.83l0.89-1.37a4,4,0,0,0,2.3.87,1.2,1.2,0,0,0,.66-0.15,0.46,0.46,0,0,0,.22-0.4v0a0.42,0.42,0,0,0,0-.14,0.35,0.35,0,0,0-.08-0.12l-0.11-.1-0.16-.09-0.18-.08-0.22-.08-0.23-.07-0.26-.08-0.26-.08-0.63-.21a4,4,0,0,1-.58-0.29,2.17,2.17,0,0,1-.51-0.4,1.81,1.81,0,0,1-.33-0.56,2,2,0,0,1-.13-0.74v0a2.07,2.07,0,0,1,.76-1.7,2.93,2.93,0,0,1,1.91-.62,4.79,4.79,0,0,1,1.42.22,5,5,0,0,1,1.32.62l-0.79,1.43a4.17,4.17,0,0,0-2-.68,1,1,0,0,0-.57.14,0.42,0.42,0,0,0-.2.36v0a0.42,0.42,0,0,0,.19.32,1.58,1.58,0,0,0,.42.24l0.66,0.24,0.22,0.07,0.63,0.23a4.48,4.48,0,0,1,.59.3,2.23,2.23,0,0,1,.52.4,1.89,1.89,0,0,1,.34.54,1.77,1.77,0,0,1,.14.71v0a2.09,2.09,0,0,1-.77,1.76A3.23,3.23,0,0,1,122.5,106.46Z" transform="translate(0 0)"/><path class="cls-1" d="M133.34,106.45a2.28,2.28,0,0,1-1.58-.5,2.19,2.19,0,0,1-.55-1.69V100.8h-0.87V99h0.87V97.15h2.08V99H135v1.78h-1.72v3.12a0.76,0.76,0,0,0,.16.53,0.66,0.66,0,0,0,.51.17,2.07,2.07,0,0,0,1-.26V106A3.17,3.17,0,0,1,133.34,106.45Z" transform="translate(0 0)"/><path class="cls-1" d="M139.76,106.5a3.75,3.75,0,0,1-2.74-1.06,3.65,3.65,0,0,1-1.08-2.72v0a4,4,0,0,1,.46-1.9,3.54,3.54,0,0,1,1.29-1.38,3.48,3.48,0,0,1,1.87-.52,3.68,3.68,0,0,1,1.58.33,2.94,2.94,0,0,1,1.12.89,4,4,0,0,1,.64,1.26,5.06,5.06,0,0,1,.22,1.5q0,0.16,0,.55H138a1.78,1.78,0,0,0,.62,1.07,1.84,1.84,0,0,0,1.17.37,2.34,2.34,0,0,0,.93-0.18,3.06,3.06,0,0,0,.84-0.58l1.19,1.05A3.63,3.63,0,0,1,139.76,106.5ZM138,102.1h3.12a2,2,0,0,0-.5-1.13,1.38,1.38,0,0,0-1-.42,1.41,1.41,0,0,0-1,.42A2.07,2.07,0,0,0,138,102.1Z" transform="translate(0 0)"/><path class="cls-1" d="M144.66,106.33V99h2.08v1.47a2.27,2.27,0,0,1,2.33-1.6V101H149a2.09,2.09,0,0,0-1.64.65,2.81,2.81,0,0,0-.58,1.93v2.7h-2.08Z" transform="translate(0 0)"/><path class="cls-1" d="M150.36,106.33V99h2.08v1.47a2.27,2.27,0,0,1,2.33-1.6V101h-0.11a2.09,2.09,0,0,0-1.64.65,2.81,2.81,0,0,0-.58,1.93v2.7h-2.08Z" transform="translate(0 0)"/><path class="cls-1" d="M156.1,98.21V96.37h2.18v1.84H156.1Zm0.06,8.12V99h2.07v7.31h-2.07Z" transform="translate(0 0)"/><path class="cls-1" d="M162.64,106.45a2.28,2.28,0,0,1-1.58-.5,2.19,2.19,0,0,1-.55-1.69V100.8h-0.87V99h0.87V97.15h2.08V99h1.72v1.78h-1.72v3.12a0.76,0.76,0,0,0,.16.53,0.66,0.66,0,0,0,.51.17,2.07,2.07,0,0,0,1-.26V106A3.17,3.17,0,0,1,162.64,106.45Z" transform="translate(0 0)"/><path class="cls-1" d="M169.21,106.5a4.06,4.06,0,0,1-2-.51,3.7,3.7,0,0,1-1.92-3.28v0a3.68,3.68,0,0,1,.3-1.48,3.78,3.78,0,0,1,.83-1.21,3.84,3.84,0,0,1,1.26-.81,4.16,4.16,0,0,1,1.58-.3,4.09,4.09,0,0,1,2,.5,3.69,3.69,0,0,1,1.92,3.27v0a3.7,3.7,0,0,1-.51,1.91,3.75,3.75,0,0,1-1.43,1.39A4.08,4.08,0,0,1,169.21,106.5Zm0-1.79a1.77,1.77,0,0,0,1.38-.58,2,2,0,0,0,.52-1.41v0a2,2,0,0,0-.54-1.43,1.79,1.79,0,0,0-1.38-.59,1.77,1.77,0,0,0-1.38.58,2,2,0,0,0-.52,1.41v0a2,2,0,0,0,.54,1.43A1.79,1.79,0,0,0,169.24,104.7Z" transform="translate(0 0)"/><path class="cls-1" d="M174.71,98.21V96.37h2.18v1.84h-2.18Zm0.06,8.12V99h2.07v7.31h-2.07Z" transform="translate(0 0)"/><path class="cls-1" d="M178.79,106.33V99h2.08v1.47a2.27,2.27,0,0,1,2.33-1.6V101h-0.11a2.09,2.09,0,0,0-1.64.65,2.81,2.81,0,0,0-.58,1.93v2.7h-2.08Z" transform="translate(0 0)"/><path class="cls-1" d="M187.75,106.5a3.75,3.75,0,0,1-2.74-1.06,3.65,3.65,0,0,1-1.08-2.72v0a4,4,0,0,1,.46-1.9,3.54,3.54,0,0,1,1.29-1.38,3.48,3.48,0,0,1,1.87-.52,3.68,3.68,0,0,1,1.58.33,2.94,2.94,0,0,1,1.12.89,4,4,0,0,1,.64,1.26,5.06,5.06,0,0,1,.22,1.5q0,0.16,0,.55H186a1.78,1.78,0,0,0,.62,1.07,1.84,1.84,0,0,0,1.17.37,2.34,2.34,0,0,0,.93-0.18,3.06,3.06,0,0,0,.84-0.58l1.19,1.05A3.63,3.63,0,0,1,187.75,106.5ZM186,102.1h3.12a2,2,0,0,0-.5-1.13,1.38,1.38,0,0,0-1-.42,1.41,1.41,0,0,0-1,.42A2.07,2.07,0,0,0,186,102.1Z" transform="translate(0 0)"/><path class="cls-1" d="M195.2,106.46a5.09,5.09,0,0,1-1.62-.27,5,5,0,0,1-1.51-.83L193,104a4,4,0,0,0,2.3.87,1.2,1.2,0,0,0,.66-0.15,0.46,0.46,0,0,0,.22-0.4v0a0.42,0.42,0,0,0,0-.14A0.35,0.35,0,0,0,196,104l-0.11-.1-0.16-.09-0.18-.08-0.22-.08-0.23-.07-0.26-.08-0.26-.08-0.63-.21a4,4,0,0,1-.58-0.29,2.17,2.17,0,0,1-.51-0.4,1.81,1.81,0,0,1-.33-0.56,2,2,0,0,1-.13-0.74v0a2.07,2.07,0,0,1,.76-1.7,2.93,2.93,0,0,1,1.91-.62,4.79,4.79,0,0,1,1.42.22,5,5,0,0,1,1.32.62L197,101.19a4.17,4.17,0,0,0-2-.68,1,1,0,0,0-.57.14,0.42,0.42,0,0,0-.2.36v0a0.42,0.42,0,0,0,.19.32,1.58,1.58,0,0,0,.42.24l0.66,0.24,0.22,0.07,0.63,0.23a4.48,4.48,0,0,1,.59.3,2.23,2.23,0,0,1,.52.4,1.89,1.89,0,0,1,.34.54,1.77,1.77,0,0,1,.14.71v0a2.09,2.09,0,0,1-.77,1.76A3.23,3.23,0,0,1,195.2,106.46Z" transform="translate(0 0)"/><path class="cls-1" d="M68.68,122.86a3.75,3.75,0,0,1-2.74-1.06,3.65,3.65,0,0,1-1.08-2.72v0a4,4,0,0,1,.46-1.9,3.54,3.54,0,0,1,1.29-1.38,3.48,3.48,0,0,1,1.87-.52,3.68,3.68,0,0,1,1.58.33,2.94,2.94,0,0,1,1.12.89,4,4,0,0,1,.64,1.26,5.06,5.06,0,0,1,.22,1.5q0,0.16,0,.55H66.92a1.78,1.78,0,0,0,.62,1.07,1.84,1.84,0,0,0,1.17.37,2.34,2.34,0,0,0,.93-0.18,3.06,3.06,0,0,0,.84-0.58l1.19,1.05A3.63,3.63,0,0,1,68.68,122.86Zm-1.78-4.39H70a2,2,0,0,0-.5-1.13,1.38,1.38,0,0,0-1-.42,1.41,1.41,0,0,0-1,.42A2.07,2.07,0,0,0,66.9,118.47Z" transform="translate(0 0)"/><path class="cls-1" d="M76,122.81a2.28,2.28,0,0,1-1.58-.5,2.19,2.19,0,0,1-.55-1.69v-3.46H73v-1.78h0.87v-1.86H76v1.86h1.72v1.78H76v3.12a0.76,0.76,0,0,0,.16.53,0.66,0.66,0,0,0,.51.17,2.07,2.07,0,0,0,1-.26v1.66A3.17,3.17,0,0,1,76,122.81Z" transform="translate(0 0)"/><path class="cls-1" d="M86.32,122.83a3.18,3.18,0,0,1-1.24-.25,3.25,3.25,0,0,1-1.81-1.91,4.47,4.47,0,0,1-.28-1.61v0a4.52,4.52,0,0,1,.28-1.61,3.22,3.22,0,0,1,1.8-1.91,3.21,3.21,0,0,1,1.25-.25,2.86,2.86,0,0,1,2.28,1.09v-3.6h2.07v10H88.6v-1.05A2.72,2.72,0,0,1,86.32,122.83Zm0.53-1.76a1.64,1.64,0,0,0,1.26-.56,2.07,2.07,0,0,0,.52-1.45v0a2.07,2.07,0,0,0-.52-1.45,1.64,1.64,0,0,0-1.26-.56,1.67,1.67,0,0,0-1.27.56,2.05,2.05,0,0,0-.52,1.45v0a2.05,2.05,0,0,0,.52,1.45A1.66,1.66,0,0,0,86.85,121.07Z" transform="translate(0 0)"/><path class="cls-1" d="M96,122.86a3.75,3.75,0,0,1-2.74-1.06,3.65,3.65,0,0,1-1.08-2.72v0a4,4,0,0,1,.46-1.9,3.54,3.54,0,0,1,1.29-1.38,3.48,3.48,0,0,1,1.87-.52,3.68,3.68,0,0,1,1.58.33,2.94,2.94,0,0,1,1.12.89,4,4,0,0,1,.64,1.26,5.06,5.06,0,0,1,.22,1.5q0,0.16,0,.55H94.23a1.78,1.78,0,0,0,.62,1.07,1.84,1.84,0,0,0,1.17.37,2.34,2.34,0,0,0,.93-0.18,3.06,3.06,0,0,0,.84-0.58L99,121.5A3.63,3.63,0,0,1,96,122.86Zm-1.78-4.39h3.12a2,2,0,0,0-.5-1.13,1.38,1.38,0,0,0-1-.42,1.41,1.41,0,0,0-1,.42A2.07,2.07,0,0,0,94.2,118.47Z" transform="translate(0 0)"/><path class="cls-1" d="M103.44,122.83a5.09,5.09,0,0,1-1.62-.27,5,5,0,0,1-1.51-.83l0.89-1.37a4,4,0,0,0,2.3.87,1.2,1.2,0,0,0,.66-0.15,0.46,0.46,0,0,0,.22-0.4v0a0.42,0.42,0,0,0,0-.14,0.35,0.35,0,0,0-.08-0.12l-0.11-.1L104,120.2l-0.18-.08L103.6,120l-0.23-.07-0.26-.08-0.26-.08-0.63-.21a4,4,0,0,1-.58-0.29,2.17,2.17,0,0,1-.51-0.4,1.81,1.81,0,0,1-.33-0.56,2,2,0,0,1-.13-0.74v0a2.07,2.07,0,0,1,.76-1.7,2.93,2.93,0,0,1,1.91-.62,4.79,4.79,0,0,1,1.42.22,5,5,0,0,1,1.32.62l-0.79,1.43a4.17,4.17,0,0,0-2-.68,1,1,0,0,0-.57.14,0.42,0.42,0,0,0-.2.36v0a0.42,0.42,0,0,0,.19.32,1.58,1.58,0,0,0,.42.24l0.66,0.24,0.22,0.07,0.63,0.23a4.48,4.48,0,0,1,.59.3,2.23,2.23,0,0,1,.52.4,1.89,1.89,0,0,1,.34.54,1.77,1.77,0,0,1,.14.71v0a2.09,2.09,0,0,1-.77,1.76A3.23,3.23,0,0,1,103.44,122.83Z" transform="translate(0 0)"/><path class="cls-1" d="M115.27,122.86a3.75,3.75,0,0,1-2.74-1.06,3.65,3.65,0,0,1-1.08-2.72v0a4,4,0,0,1,.46-1.9,3.54,3.54,0,0,1,1.29-1.38,3.48,3.48,0,0,1,1.87-.52,3.68,3.68,0,0,1,1.58.33,2.94,2.94,0,0,1,1.12.89,4,4,0,0,1,.64,1.26,5.06,5.06,0,0,1,.22,1.5q0,0.16,0,.55h-5.09a1.78,1.78,0,0,0,.62,1.07,1.84,1.84,0,0,0,1.17.37,2.34,2.34,0,0,0,.93-0.18,3.06,3.06,0,0,0,.84-0.58l1.19,1.05A3.63,3.63,0,0,1,115.27,122.86Zm-1.78-4.39h3.12a2,2,0,0,0-.5-1.13,1.38,1.38,0,0,0-1-.42,1.41,1.41,0,0,0-1,.42A2.07,2.07,0,0,0,113.49,118.47Z" transform="translate(0 0)"/><path class="cls-1" d="M124.25,122.69l-1.47-2.28-1.47,2.28h-2.17L121.7,119l-2.47-3.6h2.22l1.37,2.14,1.38-2.14h2.17L123.89,119l2.58,3.74h-2.22Z" transform="translate(0 0)"/><path class="cls-1" d="M127.71,124.88v-9.5h2.08v1.05a2.72,2.72,0,0,1,2.28-1.19,3.18,3.18,0,0,1,1.24.25,3.3,3.3,0,0,1,1.06.72,3.37,3.37,0,0,1,.75,1.2,4.47,4.47,0,0,1,.28,1.61v0a4.56,4.56,0,0,1-.27,1.61,3.2,3.2,0,0,1-1.8,1.91,3.21,3.21,0,0,1-1.25.25,2.86,2.86,0,0,1-2.28-1.09v3.14h-2.08Zm3.82-3.81a1.66,1.66,0,0,0,1.27-.56,2.06,2.06,0,0,0,.52-1.46v0a2.06,2.06,0,0,0-.52-1.45,1.69,1.69,0,0,0-2.52,0,2.06,2.06,0,0,0-.52,1.45v0a2.06,2.06,0,0,0,.52,1.45A1.65,1.65,0,0,0,131.53,121.07Z" transform="translate(0 0)"/><path class="cls-1" d="M140.5,122.86a4.06,4.06,0,0,1-2-.51,3.7,3.7,0,0,1-1.92-3.28v0a3.68,3.68,0,0,1,.3-1.48,3.78,3.78,0,0,1,.83-1.21,3.84,3.84,0,0,1,1.26-.81,4.16,4.16,0,0,1,1.58-.3,4.09,4.09,0,0,1,2,.5,3.69,3.69,0,0,1,1.92,3.27v0A3.7,3.7,0,0,1,144,121a3.75,3.75,0,0,1-1.43,1.39A4.08,4.08,0,0,1,140.5,122.86Zm0-1.79a1.77,1.77,0,0,0,1.38-.58,2,2,0,0,0,.52-1.41v0a2,2,0,0,0-.54-1.43,1.79,1.79,0,0,0-1.38-.59,1.77,1.77,0,0,0-1.38.58,2,2,0,0,0-.52,1.41v0a2,2,0,0,0,.54,1.43A1.79,1.79,0,0,0,140.53,121.07Z" transform="translate(0 0)"/><path class="cls-1" d="M146,122.69v-7.31H148v1.47a2.27,2.27,0,0,1,2.33-1.6v2.16h-0.11a2.09,2.09,0,0,0-1.64.65A2.81,2.81,0,0,0,148,120v2.7H146Z" transform="translate(0 0)"/><path class="cls-1" d="M154.13,122.81a2.28,2.28,0,0,1-1.58-.5,2.19,2.19,0,0,1-.55-1.69v-3.46h-0.87v-1.78H152v-1.86h2.08v1.86h1.72v1.78h-1.72v3.12a0.76,0.76,0,0,0,.16.53,0.66,0.66,0,0,0,.51.17,2.07,2.07,0,0,0,1-.26v1.66A3.17,3.17,0,0,1,154.13,122.81Z" transform="translate(0 0)"/><path class="cls-1" d="M159.39,122.83a2.72,2.72,0,0,1-1.79-.59,2,2,0,0,1-.72-1.64v0a2,2,0,0,1,.8-1.75,3.52,3.52,0,0,1,2.15-.59,5.42,5.42,0,0,1,1.78.3v-0.12a1.25,1.25,0,0,0-.4-1,1.74,1.74,0,0,0-1.17-.34,5.83,5.83,0,0,0-2,.4l-0.52-1.58a7.22,7.22,0,0,1,1.32-.44,7,7,0,0,1,1.52-.15,3.36,3.36,0,0,1,2.47.82,3.16,3.16,0,0,1,.79,2.33v4.24h-2V121.9A2.83,2.83,0,0,1,159.39,122.83ZM160,121.4a1.82,1.82,0,0,0,1.17-.36,1.12,1.12,0,0,0,.45-0.92v-0.37a3.06,3.06,0,0,0-1.32-.27,1.84,1.84,0,0,0-1.05.26,0.85,0.85,0,0,0-.38.75v0a0.77,0.77,0,0,0,.31.65A1.32,1.32,0,0,0,160,121.4Z" transform="translate(0 0)"/><path class="cls-1" d="M167.77,122.81a2.28,2.28,0,0,1-1.58-.5,2.19,2.19,0,0,1-.55-1.69v-3.46h-0.87v-1.78h0.87v-1.86h2.08v1.86h1.72v1.78h-1.72v3.12a0.76,0.76,0,0,0,.16.53,0.66,0.66,0,0,0,.51.17,2.07,2.07,0,0,0,1-.26v1.66A3.17,3.17,0,0,1,167.77,122.81Z" transform="translate(0 0)"/><path class="cls-1" d="M171,114.58v-1.84h2.18v1.84H171Zm0.06,8.12v-7.31h2.07v7.31h-2.07Z" transform="translate(0 0)"/><path class="cls-1" d="M178.66,122.86a4.06,4.06,0,0,1-2-.51,3.7,3.7,0,0,1-1.92-3.28v0a3.68,3.68,0,0,1,.3-1.48,3.78,3.78,0,0,1,.83-1.21,3.84,3.84,0,0,1,1.26-.81,4.16,4.16,0,0,1,1.58-.3,4.09,4.09,0,0,1,2,.5,3.69,3.69,0,0,1,1.92,3.27v0a3.7,3.7,0,0,1-.51,1.91,3.75,3.75,0,0,1-1.43,1.39A4.08,4.08,0,0,1,178.66,122.86Zm0-1.79a1.77,1.77,0,0,0,1.38-.58,2,2,0,0,0,.52-1.41v0a2,2,0,0,0-.54-1.43,1.79,1.79,0,0,0-1.38-.59,1.77,1.77,0,0,0-1.38.58,2,2,0,0,0-.52,1.41v0a2,2,0,0,0,.54,1.43A1.79,1.79,0,0,0,178.69,121.07Z" transform="translate(0 0)"/><path class="cls-1" d="M184.12,122.69v-7.31h2.08v1a3.65,3.65,0,0,1,.92-0.86,2.24,2.24,0,0,1,1.22-.31,2.34,2.34,0,0,1,1.83.72,2.85,2.85,0,0,1,.66,2v4.73h-2.07v-4.08a1.66,1.66,0,0,0-.33-1.11,1.16,1.16,0,0,0-.93-0.38,1.21,1.21,0,0,0-.95.38,1.61,1.61,0,0,0-.34,1.11v4.08h-2.08Z" transform="translate(0 0)"/><path class="cls-1" d="M195.18,122.83a5.09,5.09,0,0,1-1.62-.27,5,5,0,0,1-1.51-.83l0.89-1.37a4,4,0,0,0,2.3.87,1.2,1.2,0,0,0,.66-0.15,0.46,0.46,0,0,0,.22-0.4v0a0.42,0.42,0,0,0,0-.14,0.35,0.35,0,0,0-.08-0.12l-0.11-.1-0.16-.09-0.18-.08-0.22-.08-0.23-.07-0.26-.08-0.26-.08-0.63-.21a4,4,0,0,1-.58-0.29,2.17,2.17,0,0,1-.51-0.4,1.81,1.81,0,0,1-.33-0.56,2,2,0,0,1-.13-0.74v0a2.07,2.07,0,0,1,.76-1.7,2.93,2.93,0,0,1,1.91-.62,4.79,4.79,0,0,1,1.42.22,5,5,0,0,1,1.32.62L197,117.55a4.17,4.17,0,0,0-2-.68,1,1,0,0,0-.57.14,0.42,0.42,0,0,0-.2.36v0a0.42,0.42,0,0,0,.19.32,1.58,1.58,0,0,0,.42.24l0.66,0.24,0.22,0.07,0.63,0.23a4.48,4.48,0,0,1,.59.3,2.23,2.23,0,0,1,.52.4,1.89,1.89,0,0,1,.34.54,1.77,1.77,0,0,1,.14.71v0a2.09,2.09,0,0,1-.77,1.76A3.23,3.23,0,0,1,195.18,122.83Z" transform="translate(0 0)"/><path class="cls-2" d="M57,69.39a28.73,28.73,0,0,1-9.59,4.86H64.35V59A22,22,0,0,1,57,69.39M64.35,8.6L52.61,25.16l-1.25-.84C45,19.85,38.05,17.39,31.77,17.39c-3.63,0-5.89,1.26-5.89,3.29v0.21c0,2.19,1.6,3.47,11.51,5.72,9.66,2.1,15.95,4.52,20.39,7.84A18.7,18.7,0,0,1,64.35,43V8.6ZM31.25,47c-15-3.43-28.56-7.87-28.56-24.25V22.55C2.69,11.84,8.94,3.69,19.11,0H0V61.12l11.7-14L12.76,48c7,5.6,14.68,8.44,22.75,8.44,2.59,0,6.93-.47,6.93-3.6V52.62c0-1.71-.82-3.21-11.2-5.61" transform="translate(0 0)"/><rect class="cls-3" x="138.6" width="7.43" height="74.25"/><polygon class="cls-3" points="165.83 0 165.83 54.45 193.05 54.45 193.05 74.25 198 74.25 198 0 165.83 0"/><polygon class="cls-3" points="111.34 0 111.34 17.33 84.15 17.33 84.15 29.7 108.86 29.7 108.86 29.7 108.9 29.7 108.9 47.02 84.15 47.02 84.15 74.25 118.8 74.25 118.8 0 111.34 0"/></svg>